# xmcd
#
# Track frame offsets:
# 150
# 13259
# 25889
# 38360
# 51798
# 64144
# 77608
# 89660
# 102283
# 114622
# 128032
# 142262
# 156783
# 169942
# 183404
# 196398
# 207988
# 220465
# 236517
# 249657
#
# Disc length: 3516 seconds
#
#
# Revision: 0
# Processed by: cddbd v1.5.2PL0 Copyright (c) Steve Scherf et al.
# Submitted via: FreeRIP 2.95 
#
DISCID=210dba14
DTITLE=The Carter Family - Can The Circle Be Unbroken [CD2]
DYEAR=1900
DGENRE=
TTITLE0=Bury Me Under The Weeping Willow Tree
TTITLE1=Hello Stranger
TTITLE2=Anchored In Love
TTITLE3=Carter's Blues
TTITLE4=Worried Man Blues
TTITLE5=The Cannonball
TTITLE6=Lonesome Valley
TTITLE7=The Mountains Of Tennessee
TTITLE8=Reckless Motorman
TTITLE9=Lonesome Pine Special
TTITLE10=Just Another Broken Heart
TTITLE11=Church In The Wildwood
TTITLE12=No Depression In Heaven
TTITLE13=My Home's Across The Blue Ridge Mountains
TTITLE14=You Better Leave That Liar Alone
TTITLE15=I'll Be Home Some Day
TTITLE16=Cuban Soldier
TTITLE17=Gold Watch And Chain
TTITLE18=Are You Tired Of Me, Darling?
TTITLE19=Can The Circle Be Unbroken?
EXTD=
EXTT0=
EXTT1=
EXTT2=
EXTT3=
EXTT4=
EXTT5=
EXTT6=
EXTT7=
EXTT8=
EXTT9=
EXTT10=
EXTT11=
EXTT12=
EXTT13=
EXTT14=
EXTT15=
EXTT16=
EXTT17=
EXTT18=
EXTT19=
PLAYORDER=
